
      <svg data-logo="logo" xmlns="http://www.w3.org/2000/svg" viewBox="0 0 155 43">
        <g id="logogram" transform="translate(0, 1) rotate(0) "><path fill-rule="evenodd" clip-rule="evenodd" d="M1.78611 12.9662C0.310192 16.6208 -0.075977 20.6421 0.676494 24.5218C1.42887 28.4014 3.28611 31.9651 6.01319 34.7621C8.74026 37.5591 12.2149 39.4639 15.9974 40.2356C19.7802 41.0074 23.701 40.6112 27.2642 39.0975C30.8272 37.5838 33.8728 35.0202 36.0154 31.7314C36.0725 31.6436 36.129 31.5555 36.1847 31.4669C36.224 31.4045 36.2631 31.3416 36.3018 31.2786V40.6199H37.8018C41.6585 40.6199 45.4287 39.4469 48.6353 37.2492C51.8422 35.0518 54.3415 31.9281 55.8173 28.2735C57.2933 24.6191 57.6795 20.5978 56.927 16.7181C56.1746 12.8385 54.3175 9.27482 51.5904 6.47782C48.8632 3.68072 45.3886 1.77595 41.6061 1.00428C37.8233 0.232513 33.9025 0.628585 30.3393 2.14235C26.7763 3.65612 23.7308 6.21959 21.5881 9.50853C21.4907 9.65822 21.3952 9.8092 21.3017 9.96123V0.619946H19.8017C15.945 0.619946 12.1749 1.79295 8.96815 3.99059C5.76142 6.18813 3.26204 9.31172 1.78611 12.9662ZM18.3018 20.6199V3.76692C15.5678 4.02289 12.9307 4.97561 10.6349 6.54889C7.92143 8.4084 5.80665 11.0515 4.55778 14.1437C3.30891 17.2361 2.98215 20.6386 3.61881 23.9215C4.25548 27.2042 5.82698 30.2196 8.13447 32.5864C10.4421 34.9531 13.3821 36.5648 16.5828 37.2178C19.7835 37.8708 23.101 37.5356 26.1161 36.2548C29.0099 35.0254 31.5003 32.9776 33.2989 30.3542C31.9358 31.0179 30.411 31.3892 28.8018 31.3892C23.0029 31.3892 18.3018 26.5675 18.3018 20.6199ZM39.3017 37.4729V20.6199C39.3017 14.6723 34.6006 9.8507 28.8018 9.8507C27.1925 9.8507 25.6678 10.222 24.3046 10.8857C26.1032 8.2622 28.5936 6.21442 31.4875 4.98508C34.5025 3.70419 37.82 3.36906 41.0207 4.02205C44.2214 4.67502 47.1614 6.28682 49.4691 8.65348C51.7766 11.0202 53.3481 14.0356 53.9846 17.3184C54.6213 20.6012 54.2946 24.0038 53.0457 27.0961C51.797 30.1884 49.6821 32.8315 46.9686 34.6909C44.6728 36.2642 42.0357 37.2169 39.3017 37.4729ZM28.6517 28.3108C24.6286 28.2298 21.3822 24.8999 21.3033 20.7738H24.1407C26.3791 21.2971 28.1413 23.1042 28.6517 25.4001V28.3108ZM28.9517 28.3108C32.9747 28.2298 36.2213 24.8999 36.3002 20.7738H33.4628C31.2241 21.2971 29.462 23.1045 28.9517 25.4006V28.3108ZM36.3002 20.4661C36.2213 16.3399 32.9747 13.0101 28.9517 12.9291V15.8392C29.462 18.1352 31.224 19.9426 33.4624 20.4661H36.3002ZM28.6517 12.9291C24.6288 13.0101 21.3822 16.3399 21.3033 20.4661H24.1412C26.3794 19.9426 28.1414 18.1355 28.6517 15.8398V12.9291Z" fill="#8046FD"/></g>
        <g id="logotype" transform="translate(64, 8.5)"><path fill="#8e51ff" d="M17.64 26.38L17.64 26.38Q14.58 26.38 12.31 25.44Q10.05 24.50 8.79 22.65Q7.52 20.80 7.45 18.10L7.45 18.10L12.53 18.10Q12.63 19.39 13.30 20.25Q13.96 21.11 15.07 21.54Q16.19 21.97 17.59 21.97L17.59 21.97Q18.99 21.97 20.02 21.57Q21.06 21.16 21.64 20.43Q22.22 19.69 22.22 18.72L22.22 18.72Q22.22 17.85 21.70 17.26Q21.18 16.67 20.20 16.24Q19.23 15.81 17.83 15.49L17.83 15.49L15.02 14.79Q11.79 14.00 9.96 12.32Q8.14 10.64 8.14 7.87L8.14 7.87Q8.14 5.56 9.38 3.83Q10.61 2.11 12.78 1.15Q14.94 0.19 17.71 0.19L17.71 0.19Q20.53 0.19 22.63 1.16Q24.73 2.13 25.91 3.84Q27.09 5.56 27.12 7.80L27.12 7.80L22.08 7.80Q21.94 6.26 20.77 5.42Q19.60 4.59 17.66 4.59L17.66 4.59Q16.34 4.59 15.40 4.96Q14.46 5.34 13.96 6.00Q13.47 6.67 13.47 7.53L13.47 7.53Q13.47 8.47 14.04 9.09Q14.61 9.71 15.54 10.10Q16.48 10.48 17.55 10.74L17.55 10.74L19.86 11.30Q21.47 11.66 22.85 12.28Q24.23 12.89 25.28 13.79Q26.32 14.69 26.89 15.92Q27.46 17.15 27.46 18.75L27.46 18.75Q27.46 21.06 26.30 22.78Q25.14 24.50 22.94 25.44Q20.73 26.38 17.64 26.38ZM28.83 0.54L33.96 0.54L33.96 26L28.83 26L28.83 0.54ZM41.37 26.38L41.37 26.38Q39.56 26.38 38.12 25.74Q36.67 25.09 35.84 23.82Q35.01 22.55 35.01 20.65L35.01 20.65Q35.01 19.06 35.60 17.98Q36.19 16.91 37.21 16.26Q38.23 15.61 39.52 15.27Q40.81 14.93 42.23 14.79L42.23 14.79Q43.88 14.62 44.90 14.47Q45.92 14.33 46.39 14.01Q46.86 13.70 46.86 13.08L46.86 13.08L46.86 12.99Q46.86 12.17 46.52 11.61Q46.17 11.05 45.51 10.75Q44.84 10.45 43.87 10.45L43.87 10.45Q42.88 10.45 42.14 10.75Q41.41 11.05 40.94 11.54Q40.48 12.04 40.26 12.65L40.26 12.65L35.56 11.87Q36.06 10.21 37.20 9.05Q38.35 7.88 40.05 7.27Q41.75 6.65 43.87 6.65L43.87 6.65Q45.42 6.65 46.87 7.02Q48.33 7.39 49.48 8.16Q50.63 8.93 51.31 10.16Q51.98 11.39 51.98 13.13L51.98 13.13L51.98 26L47.13 26L47.13 23.35L46.96 23.35Q46.50 24.24 45.73 24.91Q44.96 25.59 43.88 25.98Q42.79 26.38 41.37 26.38ZM42.82 22.77L42.82 22.77Q44.04 22.77 44.95 22.29Q45.87 21.81 46.38 20.99Q46.89 20.17 46.89 19.16L46.89 19.16L46.89 17.10Q46.67 17.27 46.21 17.40Q45.75 17.54 45.18 17.64Q44.62 17.75 44.07 17.83Q43.53 17.92 43.10 17.97L43.10 17.97Q42.16 18.10 41.44 18.41Q40.72 18.72 40.33 19.22Q39.94 19.73 39.94 20.51L39.94 20.51Q39.94 21.25 40.31 21.75Q40.69 22.26 41.33 22.51Q41.97 22.77 42.82 22.77ZM62.63 26.38L62.63 26.38Q59.74 26.38 57.65 25.14Q55.55 23.90 54.42 21.68Q53.28 19.47 53.28 16.53L53.28 16.53Q53.28 13.56 54.42 11.35Q55.55 9.13 57.65 7.89Q59.74 6.65 62.63 6.65L62.63 6.65Q64.32 6.65 65.76 7.10Q67.19 7.54 68.30 8.36Q69.41 9.18 70.13 10.36Q70.85 11.54 71.12 13.01L71.12 13.01L66.36 13.90Q66.20 13.15 65.88 12.56Q65.55 11.97 65.09 11.55Q64.63 11.13 64.02 10.91Q63.42 10.69 62.68 10.69L62.68 10.69Q61.31 10.69 60.38 11.42Q59.45 12.16 58.98 13.47Q58.51 14.79 58.51 16.52L58.51 16.52Q58.51 18.22 58.98 19.53Q59.45 20.84 60.38 21.59Q61.31 22.34 62.68 22.34L62.68 22.34Q63.42 22.34 64.03 22.11Q64.65 21.88 65.12 21.45Q65.60 21.01 65.93 20.39Q66.25 19.78 66.39 19.01L66.39 19.01L71.16 19.88Q70.88 21.40 70.17 22.59Q69.45 23.78 68.34 24.63Q67.23 25.49 65.78 25.93Q64.34 26.38 62.63 26.38ZM80.54 16.48L77.05 20.41L77.05 14.24L77.82 14.24L84.08 6.89L90.01 6.89L81.75 16.48L80.54 16.48ZM77.53 26L72.40 26L72.40 0.54L77.53 0.54L77.53 26ZM90.36 26L84.33 26L78.59 17.63L82.02 13.99L90.36 26Z"/></g>
        
      </svg>
    